<svg xmlns="http://www.w3.org/2000/svg" width="24" height="23" viewBox="0 0 24 23" fill="none">
  <path fill-rule="evenodd" clip-rule="evenodd" d="M15.1085 0.17631C15.9035 -0.0587701 16.7485 -0.0587701 17.5434 0.17631C18.1441 0.353927 18.6433 0.686559 19.1262 1.09173C19.5885 1.47961 20.1106 2.00006 20.7353 2.62281L20.8078 2.69511C21.448 3.33317 21.9823 3.86575 22.3803 4.33784C22.7957 4.83043 23.1373 5.34123 23.3195 5.95863C23.5602 6.77433 23.5602 7.6432 23.3195 8.4589C23.1373 9.07631 22.7957 9.5871 22.3803 10.0797C21.9822 10.5518 21.4479 11.0844 20.8077 11.7225L19.3789 13.1468C19.0002 13.5243 18.9016 13.6272 18.8245 13.732C18.6715 13.9401 18.5605 14.1766 18.4978 14.428C18.4662 14.5546 18.4497 14.6969 18.4 15.2319L18.3958 15.2773C18.284 16.481 18.1944 17.4455 18.0752 18.1898C17.9576 18.9245 17.7882 19.6199 17.4181 20.1801C16.3676 21.7701 14.417 22.4876 12.6003 21.9523C11.9602 21.7637 11.3878 21.3412 10.83 20.8549C10.2648 20.3623 9.58224 19.6819 8.73031 18.8327L7.54297 17.6491L2.52184 22.6542C2.05497 23.1196 1.30302 23.1146 0.842304 22.643C0.381587 22.1714 0.38657 21.4119 0.853435 20.9465L5.85215 15.9637L4.81385 14.9287C3.95193 14.0696 3.26219 13.382 2.76236 12.8131C2.26998 12.2526 1.84027 11.6767 1.64475 11.031C1.0841 9.17955 1.7943 7.17596 3.39097 6.10468C3.94779 5.73109 4.64168 5.56163 5.37436 5.44419C6.11811 5.32498 7.08312 5.23592 8.289 5.12463L8.3337 5.1205C8.85147 5.07271 8.98914 5.05688 9.11189 5.02641C9.3585 4.96518 9.59096 4.85608 9.79632 4.70519C9.89855 4.63008 9.9993 4.53402 10.3694 4.16513L11.9167 2.62274C12.5414 2.00002 13.0635 1.47959 13.5257 1.09173C14.0086 0.686559 14.5078 0.353927 15.1085 0.17631ZM16.8761 2.47895C16.5169 2.37273 16.135 2.37273 15.7758 2.47895C15.6153 2.52643 15.4062 2.63297 15.0434 2.93735C14.6689 3.25158 14.2191 3.6985 13.5491 4.3664L12.0378 5.87288C12.0205 5.89007 12.0035 5.90706 11.9867 5.92385C11.6912 6.21856 11.4583 6.45096 11.1935 6.64547C10.7391 6.9794 10.2246 7.22084 9.67885 7.35634C9.36095 7.43527 9.03486 7.46524 8.62135 7.50325C8.5978 7.50541 8.57397 7.5076 8.54984 7.50983C7.28905 7.6262 6.40306 7.70861 5.74661 7.81383C5.06993 7.92229 4.81075 8.03243 4.70519 8.10325C3.98372 8.58732 3.66281 9.49266 3.91615 10.3293C3.95321 10.4517 4.08428 10.703 4.53903 11.2206C4.98017 11.7228 5.61303 12.3545 6.51417 13.2528L10.3666 17.0929C11.258 17.9815 11.8841 18.6047 12.3818 19.0385C12.8938 19.4848 13.1426 19.6128 13.2654 19.649C14.0863 19.8909 14.9677 19.5667 15.4424 18.8482C15.5135 18.7407 15.6224 18.4811 15.7304 17.8067C15.8354 17.1512 15.9182 16.2673 16.0351 15.0078C16.0375 14.9828 16.0397 14.9582 16.042 14.9338C16.0815 14.5066 16.1127 14.1697 16.1944 13.8419C16.3332 13.2855 16.5789 12.7621 16.9176 12.3015C17.1172 12.03 17.3557 11.7925 17.6582 11.4912C17.6754 11.474 17.6928 11.4566 17.7105 11.439L19.1028 10.0511C19.789 9.36721 20.2487 8.90742 20.572 8.52401C20.8856 8.15214 20.9948 7.93767 21.0432 7.77365C21.1519 7.40507 21.1519 7.01246 21.0432 6.64388C20.9948 6.47986 20.8856 6.26539 20.572 5.89352C20.2487 5.51012 19.789 5.05033 19.1028 4.3664C18.4328 3.6985 17.983 3.25158 17.6085 2.93735C17.2457 2.63297 17.0366 2.52643 16.8761 2.47895Z" fill="#007AFF"/>
</svg>