<svg viewBox="0 0 44 44" fill="none" xmlns="http://www.w3.org/2000/svg">
<rect width="44" height="44" rx="22" fill="#8D969D"/>
<path fill-rule="evenodd" clip-rule="evenodd" d="M13.3009 13.3144C13.706 12.8991 14.3671 12.8947 14.7776 13.3045L22 20.5158L29.2224 13.3045C29.6329 12.8947 30.294 12.8991 30.6991 13.3144C31.1041 13.7297 31.0997 14.3986 30.6893 14.8084L23.4865 22L30.6893 29.1916C31.0997 29.6014 31.1041 30.2703 30.6991 30.6856C30.294 31.1009 29.6329 31.1053 29.2224 30.6955L22 23.4842L14.7776 30.6955C14.3671 31.1053 13.706 31.1009 13.3009 30.6856C12.8959 30.2703 12.9003 29.6014 13.3107 29.1916L20.5135 22L13.3107 14.8084C12.9003 14.3986 12.8959 13.7297 13.3009 13.3144Z" fill="white"/>
</svg>
