<svg preserveAspectRatio="none" width="100%" height="100%" overflow="visible" style="display: block;" viewBox="0 0 10.8 15.8" fill="none" xmlns="http://www.w3.org/2000/svg">
<path id="Vector" fill-rule="evenodd" clip-rule="evenodd" d="M4.77407 0.25331C5.12301 -0.0844365 5.67699 -0.0844365 6.02593 0.25331L10.5259 4.60887C10.8831 4.95456 10.8924 5.52433 10.5467 5.88149C10.201 6.23865 9.63122 6.24794 9.27407 5.90225L5.4 2.15253L1.52593 5.90225C1.16878 6.24794 0.599003 6.23865 0.25331 5.88149C-0.0923826 5.52433 -0.083089 4.95456 0.274068 4.60887L4.77407 0.25331ZM0.25331 9.91851C0.599003 9.56135 1.16878 9.55206 1.52593 9.89775L5.4 13.6475L9.27407 9.89775C9.63123 9.55206 10.201 9.56135 10.5467 9.91851C10.8924 10.2757 10.8831 10.8454 10.5259 11.1911L6.02593 15.5467C5.67699 15.8844 5.12302 15.8844 4.77407 15.5467L0.274068 11.1911C-0.0830889 10.8454 -0.0923827 10.2757 0.25331 9.91851Z" fill="var(--fill-0, #A2ACB0)"/>
</svg>
